# xmcd
#
# Track frame offsets:
#	150
#	11202
#	22891
#	37375
#	52110
#	65215
#	76196
#	85988
#	95337
#	107555
#	119371
#	129692
#
# Disc length: 1876 seconds
#
# Revision: 1
# Processed by: cddbd v1.5.2PL0 Copyright (c) Steve Scherf et al.
# Submitted via: audiograbber 1.83.01
#
DISCID=a407520c
DTITLE=Willie Nelson - Good Times
DYEAR=1968
DGENRE=Country
TTITLE0=Good Times
TTITLE1=December Day
TTITLE2=Sweet Memories
TTITLE3=Little Things
TTITLE4=Pages
TTITLE5=She's Still Gone
TTITLE6=Ashamed
TTITLE7=A Wonderful Yesterday
TTITLE8=Permanently Lonely
TTITLE9=Down To Our Last Goodbye
TTITLE10=Buddy
TTITLE11=Did I Ever Love You
EXTD=
EXTT0=
EXTT1=
EXTT2=
EXTT3=
EXTT4=
EXTT5=
EXTT6=
EXTT7=
EXTT8=
EXTT9=
EXTT10=
EXTT11=
PLAYORDER=
